<?xml version="1.0" encoding="UTF-8"?>
<svg id="Layer_1" xmlns="http://www.w3.org/2000/svg" version="1.1" viewBox="0 0 24 24">
  <!-- Generator: Adobe Illustrator 29.0.1, SVG Export Plug-In . SVG Version: 2.1.0 Build 192)  -->
  <defs>
    <style>
      .st0 {
        fill: #001521;
      }
    </style>
  </defs>
  <path class="st0" d="M4,19c-.3,0-.5,0-.7-.3-.2-.2-.3-.4-.3-.7s0-.5.3-.7c.2-.2.4-.3.7-.3h16c.3,0,.5,0,.7.3s.3.4.3.7,0,.5-.3.7c-.2.2-.4.3-.7.3H4ZM4,13c-.3,0-.5,0-.7-.3-.2-.2-.3-.4-.3-.7s0-.5.3-.7c.2-.2.4-.3.7-.3h16c.3,0,.5,0,.7.3.2.2.3.4.3.7s0,.5-.3.7-.4.3-.7.3H4ZM4,7c-.3,0-.5,0-.7-.3-.2-.2-.3-.4-.3-.7s0-.5.3-.7c.2-.2.4-.3.7-.3h16c.3,0,.5,0,.7.3s.3.4.3.7,0,.5-.3.7-.4.3-.7.3H4Z"/>
</svg>