<?xml version="1.0" encoding="UTF-8"?>
<svg id="Layer_1" data-name="Layer 1" xmlns="http://www.w3.org/2000/svg" viewBox="0 0 180.19 236.98">
  <path d="M120.32,236.98c-.42,0-.84-.01-1.27-.04l-99.14-5.83c-5.64-.33-10.81-2.84-14.57-7.06-3.75-4.22-5.64-9.65-5.31-15.29L9.37,50.07c.68-11.64,10.71-20.56,22.36-19.87l1.55.09-.17-4.93c-.41-11.66,8.75-21.47,20.4-21.88L152.75.01c5.65-.19,11.03,1.82,15.16,5.67,4.13,3.85,6.52,9.08,6.71,14.73l5.55,158.87c.41,11.65-8.75,21.47-20.4,21.87l-17.47.61-.9,15.31c-.33,5.64-2.84,10.81-7.06,14.57-3.9,3.47-8.84,5.34-14.02,5.34ZM22.37,208.92l96.84,5.69.71-12.07-59.39,2.07c-11.61.4-21.47-8.74-21.88-20.4l-4.59-131.55-2.5-.15-9.2,156.39ZM55.43,25.72l5.47,156.57,96.95-3.39-5.47-156.57-96.95,3.39ZM157.89,180.05h0s0,0,0,0Z"/>
</svg>