<?xml version="1.0" encoding="UTF-8"?>
<svg id="Layer_1" data-name="Layer 1" xmlns="http://www.w3.org/2000/svg" viewBox="0 0 177.89 234.68">
  <path d="M119.16,234.68c-.4,0-.8-.01-1.2-.04l-99.14-5.83c-5.33-.31-10.22-2.68-13.77-6.68-3.55-3.99-5.33-9.13-5.02-14.46L9.37,48.99c.31-5.33,2.68-10.22,6.68-13.77,3.99-3.55,9.14-5.34,14.46-5.02l2.81.17-.22-6.2c-.38-11.02,8.27-20.3,19.29-20.69L151.64.01c10.98-.38,20.3,8.27,20.69,19.29l5.55,158.87c.38,11.02-8.27,20.3-19.29,20.69l-18.52.65-.96,16.35c-.31,5.33-2.69,10.23-6.68,13.77-3.69,3.28-8.36,5.05-13.26,5.05ZM29.33,50.16l-9.33,158.69,99.14,5.83.85-14.48-60.65,2.12c-5.33.17-10.43-1.72-14.34-5.36-3.91-3.64-6.16-8.59-6.35-13.93l-4.63-132.59-4.69-.28ZM152.34,20l-99.25,3.47,5.55,158.87,99.25-3.47-5.55-158.86Z"/>
</svg>