<?xml version="1.0" encoding="UTF-8"?>
<svg id="Layer_1" data-name="Layer 1" xmlns="http://www.w3.org/2000/svg" viewBox="0 0 173.68 230.47">
  <path d="M117.06,230.47c-.36,0-.71-.01-1.07-.03l-99.14-5.83c-4.77-.28-9.15-2.4-12.32-5.98S-.25,210.46.03,205.69L9.36,47.01c.28-4.77,2.4-9.15,5.98-12.32,3.57-3.18,8.17-4.77,12.94-4.49l5.12.3-.3-8.51c-.17-4.78,1.54-9.33,4.8-12.83,3.26-3.5,7.69-5.51,12.46-5.68L149.61.01c9.83-.33,18.16,7.4,18.51,17.26l5.55,158.86c.17,4.78-1.54,9.33-4.8,12.83-3.26,3.5-7.69,5.51-12.46,5.68l-20.44.71-1.07,18.27c-.28,4.77-2.4,9.15-5.97,12.32-3.3,2.94-7.48,4.52-11.87,4.52ZM27.22,45.95c-.65,0-1.11.29-1.39.53-.3.26-.66.73-.7,1.45l-9.33,158.69c-.04.72.26,1.22.53,1.52.26.3.73.66,1.45.7l99.14,5.83c.72.05,1.22-.26,1.52-.53.3-.26.66-.73.7-1.45l.99-16.79-62.96,2.2c-4.79.16-9.33-1.54-12.83-4.8s-5.51-7.69-5.68-12.46l-4.7-134.51-6.6-.39s-.09,0-.13,0ZM150.23,15.79s-.05,0-.07,0l-99.25,3.47c-1.16.04-2.07,1.02-2.03,2.18l5.55,158.87c.02.72.38,1.19.67,1.47s.77.59,1.51.56l99.25-3.47c.72-.02,1.19-.38,1.47-.67.27-.29.59-.79.56-1.51h0s-5.55-158.87-5.55-158.87c-.04-1.13-.98-2.03-2.1-2.03Z"/>
</svg>