<?xml version="1.0" encoding="UTF-8"?>
<svg id="Layer_1" data-name="Layer 1" xmlns="http://www.w3.org/2000/svg" viewBox="0 0 187.25 215.79">
  <path d="M139.94,215.79H18.6c-10.25,0-18.6-8.34-18.6-18.6V47.31c0-10.25,8.34-18.59,18.6-18.59h10.12v-10.12C28.71,8.34,37.05,0,47.31,0h121.34c10.25,0,18.6,8.34,18.6,18.6v149.88c0,10.25-8.34,18.6-18.6,18.6h-10.12v10.12c0,10.25-8.34,18.6-18.6,18.6ZM18.6,44.5c-1.55,0-2.81,1.26-2.81,2.81v149.88c0,1.55,1.26,2.81,2.81,2.81h121.34c1.55,0,2.81-1.26,2.81-2.81v-10.12H47.31c-10.25,0-18.6-8.34-18.6-18.6V44.5h-10.12ZM47.31,15.79c-1.55,0-2.81,1.26-2.81,2.81v149.88c0,1.55,1.26,2.81,2.81,2.81h121.34c1.55,0,2.81-1.26,2.81-2.81V18.6c0-1.55-1.26-2.81-2.81-2.81H47.31Z"/>
</svg>