<?xml version="1.0" encoding="UTF-8"?>
<svg id="Layer_1" data-name="Layer 1" xmlns="http://www.w3.org/2000/svg" viewBox="0 0 191.46 220">
  <path d="M142.04,220H20.7c-11.42,0-20.7-9.29-20.7-20.7V49.41c0-11.41,9.29-20.7,20.7-20.7h8.01v-8.01C28.71,9.29,38,0,49.41,0h121.34c11.42,0,20.7,9.29,20.7,20.7v149.88c0,11.41-9.29,20.7-20.7,20.7h-8.01v8.01c0,11.42-9.29,20.7-20.7,20.7ZM20.7,48.71c-.39,0-.7.31-.7.7v149.88c0,.39.31.7.7.7h121.34c.39,0,.7-.31.7-.7v-8.01H49.41c-11.42,0-20.7-9.29-20.7-20.7V48.71h-8.01ZM49.41,20c-.39,0-.7.31-.7.7v149.88c0,.39.31.7.7.7h121.34c.39,0,.7-.31.7-.7V20.7c0-.39-.31-.7-.7-.7H49.41Z"/>
</svg>