<?xml version="1.0" encoding="UTF-8"?>
<svg id="Layer_1" data-name="Layer 1" xmlns="http://www.w3.org/2000/svg" viewBox="0 0 60.25 60.25">
  <defs>
    <style>
      .cls-1 {
        fill: #0a66c1;
      }
    </style>
  </defs>
  <path id="Path_2520" data-name="Path 2520" class="cls-1" d="M51.34,51.34h-8.93v-13.98c0-3.33-.06-7.63-4.64-7.63s-5.36,3.63-5.36,7.38v14.22h-8.93v-28.75h8.57v3.93h.12c1.75-2.99,5-4.77,8.46-4.64,9.05,0,10.72,5.95,10.72,13.69v15.77ZM13.41,18.66c-2.86,0-5.18-2.32-5.18-5.18s2.32-5.18,5.18-5.18c2.86,0,5.18,2.32,5.18,5.18,0,2.86-2.32,5.18-5.18,5.18h0M17.87,51.34h-8.94v-28.75h8.94v28.75ZM55.79,0H4.45C2.02-.02.03,1.92,0,4.35v51.56c.03,2.43,2.02,4.37,4.45,4.35h51.34c2.43.03,4.43-1.92,4.46-4.35V4.34C60.22,1.91,58.22-.03,55.79,0"/>
</svg>