<?xml version="1.0" encoding="UTF-8"?>
<svg id="Layer_1" xmlns="http://www.w3.org/2000/svg" viewBox="0 0 339.55 77.47">
  <defs>
    <style>
      .cls-1 {
        fill: #0069a7;
      }
    </style>
  </defs>
  <g>
    <path class="cls-1" d="M41.78,77.47c-.11,0-.22,0-.33,0l-36.28-2.13c-1.46-.09-2.81-.74-3.78-1.83-.97-1.1-1.46-2.51-1.38-3.97L3.42,11.45c.16-2.64,2.16-4.74,4.68-5.11.21-2.75,2.46-4.97,5.28-5.07L49.7,0c1.47-.05,2.86.47,3.94,1.47,1.07,1,1.69,2.36,1.74,3.82l2.03,58.14c.11,3.03-2.27,5.57-5.29,5.68l-4.69.16-.18,3.02c-.09,1.46-.74,2.81-1.83,3.78-1.01.9-2.3,1.39-3.64,1.39ZM8.2,10.08c-.18.08-.36.18-.51.32-.37.32-.58.77-.61,1.26l-3.41,58.08c-.03.49.13.96.46,1.32s.77.58,1.26.61l36.28,2.13c.49.03.96-.13,1.32-.46.37-.32.58-.77.61-1.26l.16-2.68-27.96.98c-1.46.05-2.86-.47-3.94-1.47s-1.69-2.36-1.74-3.82l-1.92-55.01ZM49.9,3.66s-.04,0-.06,0l-36.32,1.27c-1.01.04-1.8.88-1.76,1.89l2.03,58.14c.04,1.01.89,1.8,1.89,1.76l36.32-1.27c1.01-.04,1.8-.88,1.76-1.89l-2.03-58.14c-.03-.99-.85-1.77-1.83-1.77Z"/>
    <g>
      <path class="cls-1" d="M35.04,19.11c-.6.02-1.14-.08-1.62-.32-.48-.23-.92-.5-1.32-.79-.4-.3-.76-.56-1.1-.79-.33-.23-.68-.34-1.04-.32-.53.02-.94.23-1.22.62-.28.4-.42.92-.44,1.58l-2.06.07c-.02-1.53.3-2.68.95-3.46.65-.78,1.48-1.19,2.5-1.22.62-.02,1.17.08,1.65.32.48.23.92.5,1.3.79.39.3.76.55,1.11.77.35.22.71.32,1.07.31.53-.02.94-.23,1.23-.62.29-.4.43-.93.42-1.6l2.06-.07c.02,1.55-.29,2.71-.94,3.5-.64.79-1.5,1.2-2.56,1.24Z"/>
      <path class="cls-1" d="M34.1,37.49c-3.54-1.13-5.39-1.89-5.53-5.72-.09-2.55,2.07-4.79,4.72-4.88,2.2-.08,4.56,1.4,5.87,3.1l1.46-3.77c-2.06-1.85-4.82-3.09-7.46-2.99-4.63.16-8.41,4.13-8.25,8.67.23,6.58,4.76,8.03,8.07,9.08,3.47,1.1,5.29,1.85,5.34,5.59.07,4.42-3.29,5.72-5.29,5.79-3.07.11-5.45-1.76-6.81-3.74l-1.74,3.67c2.07,2.2,5.06,3.85,8.68,3.73,4.45-.16,8.91-3.47,8.82-9.5-.1-6.54-4.6-7.97-7.89-9.02Z"/>
    </g>
  </g>
  <path class="cls-1" d="M83.24,53.17c-2.39,0-4.67-.37-6.85-1.1-2.18-.73-3.9-1.68-5.15-2.84l1.66-3.49c1.19,1.05,2.72,1.91,4.57,2.6,1.85.69,3.78,1.03,5.78,1.03,1.82,0,3.3-.21,4.43-.63,1.13-.42,1.97-.99,2.51-1.72.54-.73.81-1.56.81-2.49,0-1.08-.35-1.94-1.05-2.6-.7-.66-1.61-1.19-2.73-1.59-1.12-.4-2.35-.75-3.7-1.05-1.34-.3-2.7-.65-4.05-1.05-1.36-.4-2.6-.92-3.72-1.55-1.12-.63-2.02-1.47-2.71-2.53-.69-1.06-1.03-2.43-1.03-4.1s.43-3.1,1.28-4.46c.85-1.36,2.17-2.45,3.94-3.27,1.78-.82,4.04-1.23,6.79-1.23,1.82,0,3.63.24,5.42.72,1.79.48,3.34,1.16,4.66,2.06l-1.48,3.58c-1.34-.9-2.76-1.55-4.26-1.95-1.49-.4-2.94-.6-4.35-.6-1.76,0-3.21.22-4.35.67-1.14.45-1.96,1.05-2.49,1.79-.52.75-.78,1.58-.78,2.51,0,1.11.35,1.99,1.05,2.64.7.66,1.61,1.18,2.73,1.57,1.12.39,2.35.74,3.7,1.05s2.69.66,4.05,1.05c1.36.39,2.6.9,3.72,1.52,1.12.63,2.02,1.46,2.71,2.51.69,1.05,1.03,2.39,1.03,4.03s-.43,3.05-1.3,4.41c-.87,1.36-2.2,2.45-4.01,3.27-1.81.82-4.08,1.23-6.83,1.23ZM101.66,61.5V29.07h4.12v6.41l-.27,5.51.45,5.51v15.01h-4.3ZM114.25,53.08c-1.97,0-3.77-.45-5.4-1.37-1.63-.91-2.93-2.26-3.9-4.05-.97-1.79-1.46-4.03-1.46-6.72s.47-4.93,1.41-6.72c.94-1.79,2.22-3.14,3.85-4.03,1.63-.9,3.46-1.34,5.49-1.34,2.33,0,4.39.51,6.18,1.52,1.79,1.02,3.21,2.43,4.26,4.23,1.05,1.81,1.57,3.92,1.57,6.34s-.52,4.54-1.57,6.36c-1.05,1.82-2.46,3.24-4.26,4.26-1.79,1.02-3.85,1.52-6.18,1.52ZM113.89,49.31c1.52,0,2.89-.34,4.1-1.03,1.21-.69,2.16-1.66,2.87-2.93.7-1.27,1.05-2.74,1.05-4.41s-.35-3.17-1.05-4.41c-.7-1.24-1.66-2.2-2.87-2.89-1.21-.69-2.58-1.03-4.1-1.03s-2.84.34-4.05,1.03c-1.21.69-2.17,1.65-2.87,2.89-.7,1.24-1.05,2.71-1.05,4.41s.35,3.14,1.05,4.41c.7,1.27,1.66,2.25,2.87,2.93,1.21.69,2.56,1.03,4.05,1.03ZM140.26,53.08c-1.76,0-3.31-.3-4.64-.9-1.33-.6-2.35-1.43-3.07-2.49-.72-1.06-1.08-2.26-1.08-3.61s.31-2.45.92-3.49c.61-1.05,1.61-1.88,3-2.51s3.26-.94,5.62-.94h7.53v3.09h-7.35c-2.15,0-3.6.36-4.35,1.08-.75.72-1.12,1.58-1.12,2.6,0,1.16.46,2.1,1.39,2.8.93.7,2.21,1.05,3.85,1.05s3.02-.36,4.23-1.08,2.08-1.76,2.62-3.14l.85,2.96c-.57,1.4-1.57,2.52-3,3.34-1.43.82-3.24,1.23-5.42,1.23ZM148.05,52.81v-5.02l-.22-.94v-8.56c0-1.82-.53-3.23-1.59-4.23-1.06-1-2.65-1.5-4.77-1.5-1.4,0-2.78.23-4.12.69-1.34.46-2.48,1.08-3.4,1.86l-1.79-3.23c1.22-.99,2.69-1.74,4.41-2.26,1.72-.52,3.52-.78,5.4-.78,3.25,0,5.76.79,7.53,2.37,1.76,1.58,2.64,4,2.64,7.26v14.34h-4.08ZM171.76,28.84c1.94,0,3.65.37,5.13,1.12,1.48.75,2.64,1.88,3.47,3.4.84,1.52,1.25,3.45,1.25,5.78v13.66h-4.3v-13.17c0-2.3-.56-4.03-1.68-5.2-1.12-1.16-2.7-1.75-4.73-1.75-1.52,0-2.85.3-3.99.9-1.14.6-2.01,1.48-2.62,2.64-.61,1.16-.92,2.61-.92,4.35v12.23h-4.3v-23.74h4.12v6.41l-.67-1.7c.78-1.55,1.97-2.76,3.58-3.63,1.61-.87,3.49-1.3,5.64-1.3ZM190.72,24.5c-.84,0-1.53-.27-2.08-.81-.55-.54-.83-1.19-.83-1.97s.28-1.48.83-2.02c.55-.54,1.25-.81,2.08-.81s1.53.26,2.08.78c.55.52.83,1.17.83,1.95s-.27,1.49-.81,2.04c-.54.55-1.24.83-2.11.83ZM188.57,52.81v-23.74h4.3v23.74h-4.3ZM208.42,53.08c-1.97,0-3.85-.27-5.62-.81-1.78-.54-3.17-1.19-4.19-1.97l1.79-3.4c1.02.69,2.27,1.27,3.76,1.75,1.49.48,3.02.72,4.57.72,2,0,3.44-.28,4.32-.85.88-.57,1.32-1.36,1.32-2.37,0-.75-.27-1.33-.81-1.75-.54-.42-1.25-.73-2.13-.94-.88-.21-1.86-.4-2.93-.56-1.08-.16-2.15-.37-3.23-.63-1.08-.25-2.06-.61-2.96-1.08-.9-.46-1.61-1.1-2.15-1.93-.54-.82-.81-1.92-.81-3.29s.4-2.69,1.21-3.76c.81-1.08,1.95-1.9,3.43-2.49,1.48-.58,3.23-.87,5.26-.87,1.55,0,3.13.19,4.73.56,1.6.37,2.9.9,3.92,1.59l-1.84,3.4c-1.08-.72-2.19-1.21-3.36-1.48s-2.33-.4-3.49-.4c-1.88,0-3.29.31-4.21.92-.93.61-1.39,1.4-1.39,2.35,0,.81.28,1.43.83,1.86.55.43,1.27.77,2.15,1.01.88.24,1.86.44,2.93.6,1.08.16,2.15.37,3.23.63,1.08.25,2.05.6,2.93,1.05.88.45,1.6,1.08,2.15,1.88.55.81.83,1.88.83,3.23,0,1.43-.42,2.67-1.25,3.72-.84,1.05-2.02,1.86-3.54,2.44-1.52.58-3.35.87-5.47.87ZM237.46,28.84c1.94,0,3.65.37,5.13,1.12,1.48.75,2.64,1.88,3.47,3.4.84,1.52,1.25,3.45,1.25,5.78v13.66h-4.3v-13.17c0-2.3-.56-4.03-1.68-5.2-1.12-1.16-2.7-1.75-4.73-1.75-1.52,0-2.85.3-3.99.9-1.14.6-2.01,1.48-2.62,2.64-.61,1.16-.92,2.61-.92,4.35v12.23h-4.3V19.57h4.3v15.9l-.85-1.7c.78-1.55,1.97-2.76,3.58-3.63,1.61-.87,3.49-1.3,5.64-1.3ZM254.27,52.81v-31.36h13.22c3.34,0,6.29.66,8.85,1.97,2.55,1.31,4.54,3.15,5.96,5.51,1.42,2.36,2.13,5.09,2.13,8.2s-.71,5.84-2.13,8.2c-1.42,2.36-3.4,4.2-5.96,5.51-2.55,1.31-5.5,1.97-8.85,1.97h-13.22ZM258.75,48.91h8.47c2.6,0,4.84-.49,6.74-1.48,1.9-.99,3.37-2.37,4.41-4.14,1.05-1.78,1.57-3.83,1.57-6.16s-.52-4.42-1.57-6.18c-1.05-1.76-2.52-3.14-4.41-4.12-1.9-.99-4.14-1.48-6.74-1.48h-8.47v23.56ZM302.14,53.08c-2.54,0-4.77-.52-6.7-1.57-1.93-1.05-3.42-2.48-4.48-4.3-1.06-1.82-1.59-3.91-1.59-6.27s.52-4.45,1.55-6.27c1.03-1.82,2.45-3.25,4.26-4.28,1.81-1.03,3.84-1.55,6.12-1.55s4.33.51,6.09,1.52c1.76,1.02,3.14,2.44,4.14,4.28,1,1.84,1.5,3.98,1.5,6.43,0,.18,0,.39-.02.63-.02.24-.04.46-.07.67h-20.2v-3.09h17.96l-1.75,1.08c.03-1.52-.28-2.88-.94-4.08-.66-1.19-1.56-2.13-2.71-2.8-1.15-.67-2.49-1.01-4.01-1.01s-2.82.34-3.99,1.01c-1.16.67-2.08,1.61-2.73,2.82-.66,1.21-.99,2.59-.99,4.14v.72c0,1.58.37,2.99,1.1,4.23.73,1.24,1.75,2.2,3.07,2.89,1.31.69,2.82,1.03,4.52,1.03,1.4,0,2.68-.24,3.83-.72,1.15-.48,2.16-1.19,3.02-2.15l2.37,2.78c-1.08,1.25-2.41,2.21-4.01,2.87-1.6.66-3.38.99-5.35.99ZM316.08,52.81l10.21-13.26-.04,2.19-9.72-12.68h4.79l7.44,9.77h-1.84l7.44-9.77h4.7l-9.86,12.77.05-2.28,10.3,13.26h-4.88l-7.84-10.39,1.75.27-7.71,10.12h-4.79Z"/>
</svg>