<?xml version="1.0" encoding="UTF-8"?>
<svg id="Layer_1" data-name="Layer 1" xmlns="http://www.w3.org/2000/svg" viewBox="0 0 156.89 211.68">
  <defs>
    <style>
      .cls-1 {
        fill: #0069a7;
      }
    </style>
  </defs>
  <path class="cls-1" d="M114.16,211.68c-.3,0-.6,0-.9-.03l-99.14-5.83c-4-.23-7.67-2.01-10.33-5.01-2.66-2.99-4-6.85-3.76-10.85L9.36,31.28c.42-7.21,5.9-12.94,12.78-13.96.57-7.51,6.73-13.58,14.43-13.85L135.81,0c4.01-.14,7.82,1.29,10.75,4.02,2.93,2.73,4.62,6.44,4.76,10.45l5.55,158.87c.29,8.27-6.2,15.23-14.47,15.51l-12.81.45-.49,8.25c-.23,4-2.01,7.67-5.01,10.33-2.77,2.46-6.27,3.79-9.95,3.79ZM22.4,27.55c-.5.21-.97.5-1.39.88-1,.89-1.59,2.11-1.67,3.44l-9.33,158.69c-.08,1.33.37,2.62,1.25,3.62s2.11,1.59,3.44,1.67l99.14,5.83c1.33.08,2.62-.37,3.62-1.25,1-.89,1.59-2.11,1.67-3.44l.43-7.32-76.4,2.67c-4,.14-7.82-1.29-10.75-4.02s-4.62-6.44-4.76-10.45L22.4,27.55ZM136.34,10c-.06,0-.12,0-.18,0l-99.25,3.47c-2.75.1-4.92,2.42-4.82,5.17l5.55,158.86c.1,2.76,2.44,4.93,5.17,4.82l99.25-3.47c2.75-.1,4.92-2.42,4.82-5.17l-5.55-158.86c-.09-2.7-2.32-4.83-4.99-4.83Z"/>
  <g>
    <path class="cls-1" d="M95.75,52.21c-1.64.06-3.12-.23-4.43-.87-1.31-.63-2.51-1.36-3.6-2.16-1.09-.81-2.09-1.52-3-2.15-.91-.63-1.86-.92-2.85-.89-1.45.05-2.56.62-3.32,1.7-.76,1.08-1.16,2.52-1.19,4.3l-5.63.2c-.05-4.18.81-7.33,2.59-9.46,1.78-2.13,4.05-3.24,6.82-3.34,1.69-.06,3.19.23,4.5.86,1.31.64,2.5,1.36,3.56,2.17,1.06.81,2.07,1.51,3.03,2.11.96.6,1.93.88,2.92.85,1.45-.05,2.57-.62,3.36-1.7.78-1.08,1.17-2.54,1.15-4.37l5.63-.2c.05,4.23-.8,7.42-2.55,9.57-1.76,2.15-4.09,3.28-7,3.38Z"/>
    <path class="cls-1" d="M93.17,102.44c-9.67-3.08-14.74-5.17-15.1-15.63-.24-6.98,5.67-13.09,12.91-13.34,6.02-.21,12.47,3.84,16.05,8.48l3.98-10.3c-5.62-5.06-13.17-8.43-20.38-8.18-12.66.44-22.99,11.29-22.55,23.69.63,17.99,13.02,21.93,22.06,24.81,9.49,3.02,14.44,5.07,14.6,15.26.18,12.07-8.99,15.62-14.44,15.81-8.4.29-14.88-4.8-18.61-10.23l-4.75,10.04c5.67,6.02,13.81,10.53,23.71,10.18,12.16-.42,24.34-9.48,24.09-25.95-.27-17.87-12.58-21.78-21.56-24.64Z"/>
  </g>
</svg>